HIERARCHY
ROOT Hips
{
	OFFSET 0.00000 0.00000 0.00000
	CHANNELS 6 Xposition Yposition Zposition Zrotation Yrotation Xrotation 
	JOINT LHipJoint
	{
		OFFSET 0 0 0
		CHANNELS 3 Zrotation Yrotation Xrotation
		JOINT LeftUpLeg
		{
			OFFSET 1.61328 -1.70571 0.84375
			CHANNELS 3 Zrotation Yrotation Xrotation
			JOINT LeftLeg
			{
				OFFSET 2.32400 -6.38513 0.00000
				CHANNELS 3 Zrotation Yrotation Xrotation
				JOINT LeftFoot
				{
					OFFSET 2.58843 -7.11166 0.00000
					CHANNELS 3 Zrotation Yrotation Xrotation
					JOINT LeftToeBase
					{
						OFFSET 0.17200 -0.47257 2.47970
						CHANNELS 3 Zrotation Yrotation Xrotation
						End Site
						{
							OFFSET 0.00000 -0.00000 1.26912
						}
					}
				}
			}
		}
	}
	JOINT RHipJoint
	{
		OFFSET 0 0 0
		CHANNELS 3 Zrotation Yrotation Xrotation
		JOINT RightUpLeg
		{
			OFFSET -1.49930 -1.70570 0.84375
			CHANNELS 3 Zrotation Yrotation Xrotation
			JOINT RightLeg
			{
				OFFSET -2.30458 -6.33178 0.00000
				CHANNELS 3 Zrotation Yrotation Xrotation
				JOINT RightFoot
				{
					OFFSET -2.62261 -7.20556 0.00000
					CHANNELS 3 Zrotation Yrotation Xrotation
					JOINT RightToeBase
					{
						OFFSET -0.18709 -0.51403 2.51340
						CHANNELS 3 Zrotation Yrotation Xrotation
						End Site
						{
							OFFSET -0.00000 -0.00000 1.28858
						}
					}
				}
			}
		}
	}
	JOINT LowerBack
	{
		OFFSET 0 0 0
		CHANNELS 3 Zrotation Yrotation Xrotation
		JOINT Spine
		{
			OFFSET -0.03798 2.19274 -0.19881
			CHANNELS 3 Zrotation Yrotation Xrotation
			JOINT Spine1
			{
				OFFSET -0.00024 2.19460 0.05248
				CHANNELS 3 Zrotation Yrotation Xrotation
				JOINT Neck
				{
					OFFSET 0 0 0
					CHANNELS 3 Zrotation Yrotation Xrotation
					JOINT Neck1
					{
						OFFSET -0.00746 1.82323 0.17286
						CHANNELS 3 Zrotation Yrotation Xrotation
						JOINT Head
						{
							OFFSET 0.11826 1.82121 -0.27841
							CHANNELS 3 Zrotation Yrotation Xrotation
							End Site
							{
								OFFSET 0.03496 1.85543 -0.11495
							}
						}
					}
				}
				JOINT LeftShoulder
				{
					OFFSET 0 0 0
					CHANNELS 3 Zrotation Yrotation Xrotation
					JOINT LeftArm
					{
						OFFSET 3.71926 0.78840 0.25473
						CHANNELS 3 Zrotation Yrotation Xrotation
						JOINT LeftForeArm
						{
							OFFSET 5.37587 -0.00000 0.00000
							CHANNELS 3 Zrotation Yrotation Xrotation
							JOINT LeftHand
							{
								OFFSET 3.35977 -0.00000 0.00000
								CHANNELS 3 Zrotation Yrotation Xrotation
								JOINT LeftFingerBase
								{
									OFFSET 0 0 0
									CHANNELS 3 Zrotation Yrotation Xrotation
									JOINT LeftHandIndex1
									{
										OFFSET 0.56186 -0.00000 0.00000
										CHANNELS 3 Zrotation Yrotation Xrotation
										End Site
										{
											OFFSET 0.45299 -0.00000 0.00000
										}
									}
								}
								JOINT LThumb
								{
									OFFSET 0 0 0
									CHANNELS 3 Zrotation Yrotation Xrotation
									End Site
									{
										OFFSET 0.45990 -0.00000 0.45990
									}
								}
							}
						}
					}
				}
				JOINT RightShoulder
				{
					OFFSET 0 0 0
					CHANNELS 3 Zrotation Yrotation Xrotation
					JOINT RightArm
					{
						OFFSET -3.65136 0.56074 0.01624
						CHANNELS 3 Zrotation Yrotation Xrotation
						JOINT RightForeArm
						{
							OFFSET -5.22819 -0.00000 0.00000
							CHANNELS 3 Zrotation Yrotation Xrotation
							JOINT RightHand
							{
								OFFSET -3.40764 -0.00000 0.00000
								CHANNELS 3 Zrotation Yrotation Xrotation
								JOINT RightFingerBase
								{
									OFFSET 0 0 0
									CHANNELS 3 Zrotation Yrotation Xrotation
									JOINT RightHandIndex1
									{
										OFFSET -0.58325 -0.00000 0.00000
										CHANNELS 3 Zrotation Yrotation Xrotation
										End Site
										{
											OFFSET -0.47024 -0.00000 0.00000
										}
									}
								}
								JOINT RThumb
								{
									OFFSET 0 0 0
									CHANNELS 3 Zrotation Yrotation Xrotation
									End Site
									{
										OFFSET -0.47742 -0.00000 0.47742
									}
								}
							}
						}
					}
				}
			}
		}
	}
}
MOTION
Frames: 11
Frame Time: .0083333
49.957 16.6109 -7.2619 0 0 0 0 0 0 -21 0 0 0 0 0 0 0 0 0 0 0 0 0 0 21 0 0 0 0 0 0 0 0 0 0 0 0 0 0 0 0 0 0 0 0 0 0 -16 0 0 21 0 0 11 0 0 0 -8 0 0 0 0 0 0 0 0 0 0 0 0 0 0 0 0 0 0 0 0 8 0 0 0 0 0 0 0 0 0 0 0 0 0 0 0 0 0
49.9570 16.6109 -7.2619 -27.8775 -85.9025 28.0208 0.0000 0.0000 0.0000 -17.4368 -0.5947 -6.4367 1.9899 8.8451 25.3120 1.0076 6.9430 -22.6844 0.0642 -1.6346 -4.4967 0.0000 0.0000 0.0000 20.8147 3.2441 -9.6554 -3.4388 -11.3736 33.5505 -2.1150 0.2655 -27.4644 -0.8423 -5.8540 16.3614 -0.0517 0.4293 -1.9832 0.6507 0.5126 3.6220 0.7315 0.2241 4.8426 -4.5141 -3.5700 -9.9160 7.7602 -4.6179 0.9857 3.1204 -2.1298 2.4092 -0.0000 0.0000 0.0000 -89.3942 -4.3201 25.4463 13.0779 -21.4013 -2.4817 -0.0000 0.0000 -8.0367 21.7270 16.0753 6.2967 -7.1250 0.0000 -0.0000 -5.7503 47.1316 -0.3034 -0.0000 0.0000 0.0000 87.6842 1.2104 20.0624 -14.2662 23.1140 -2.9318 0.0000 0.0000 0.2184 -21.8607 7.1997 -2.8785 7.1250 -0.0000 -0.0000 3.6025 -22.2339 1.9753
49.9488 16.6089 -7.2600 -25.8092 -85.9500 25.9050 0.0000 0.0000 0.0000 -17.6235 -0.5350 -6.2943 1.9742 8.8120 25.2091 1.0001 6.9796 -22.6452 0.0692 -1.6973 -4.6699 0.0000 0.0000 0.0000 20.6079 3.0704 -9.6415 -3.4502 -11.3904 33.6082 -2.1160 0.4121 -27.4258 -0.8383 -5.8407 16.3228 -0.2071 0.3891 -2.0188 0.6323 0.4687 3.5418 0.7967 0.1982 4.7785 -4.5881 -3.5299 -9.5178 7.7628 -4.5617 0.9317 3.1413 -2.1096 2.3161 0.0000 0.0000 0.0000 -89.4435 -4.2414 25.2953 12.9124 -21.1588 -2.4216 -0.0000 0.0000 -7.9400 21.6752 15.8785 6.2060 -7.1250 0.0000 -0.0000 -5.7552 46.9168 -0.2731 0.0000 0.0000 0.0000 87.6128 0.9886 20.1941 -14.2664 23.1143 -2.9319 0.0000 0.0000 0.2110 -21.8355 7.2510 -2.8952 7.1250 -0.0000 -0.0000 3.6215 -22.1805 1.9901
49.9464 16.6082 -7.2599 -25.6157 -85.9380 25.7021 0.0000 0.0000 0.0000 -17.6312 -0.5123 -6.2569 1.9712 8.8058 25.1898 1.0062 6.9205 -22.6564 0.0651 -1.6464 -4.5294 0.0000 0.0000 0.0000 20.5990 3.0406 -9.6308 -3.4522 -11.3934 33.6184 -2.1167 0.4001 -27.4338 -0.8292 -5.8094 16.2324 -0.2135 0.3874 -2.0441 0.6263 0.4670 3.5533 0.7943 0.1971 4.8050 -4.5855 -3.5394 -9.5503 7.7849 -4.5766 0.9604 3.1476 -2.1155 2.3336 -0.0000 -0.0000 0.0000 -89.4371 -4.1101 25.3329 13.0674 -21.3859 -2.4778 -0.0000 0.0000 -7.9720 21.6615 15.9705 6.2364 -7.1250 0.0000 -0.0000 -5.7887 47.0120 -0.2883 -0.0000 -0.0000 0.0000 87.6083 1.0080 20.1944 -14.2699 23.1192 -2.9333 0.0000 0.0000 0.2003 -21.7799 7.2146 -2.8727 7.1250 -0.0000 -0.0000 3.6617 -22.2225 2.0089
49.9452 16.6083 -7.2598 -25.8826 -85.9426 25.9778 0.0000 0.0000 0.0000 -17.6154 -0.5050 -6.2589 1.9669 8.7969 25.1619 0.9983 6.9755 -22.6264 0.0700 -1.7068 -4.6960 0.0000 0.0000 0.0000 20.6137 3.0509 -9.6424 -3.4548 -11.3973 33.6317 -2.1175 0.4254 -27.4311 -0.8323 -5.8202 16.2637 -0.1948 0.3959 -2.0489 0.6271 0.4778 3.5385 0.7853 0.2034 4.7923 -4.5808 -3.5519 -9.5886 7.7855 -4.5956 1.0208 3.1458 -2.1232 2.3622 0.0000 -0.0000 0.0000 -89.4505 -4.2119 25.2268 12.9535 -21.2190 -2.4364 -0.0000 0.0000 -7.8461 21.6991 15.9543 6.2422 -7.1250 0.0000 -0.0000 -5.7496 47.0002 -0.2847 0.0000 -0.0000 0.0000 87.6063 1.0011 20.1975 -14.2749 23.1263 -2.9352 0.0000 0.0000 0.1849 -21.7465 7.3006 -2.9018 7.1250 -0.0000 -0.0000 3.6870 -22.1322 2.0304
49.9425 16.6080 -7.2595 -25.6275 -85.9451 25.7177 0.0000 0.0000 0.0000 -17.6352 -0.4894 -6.2517 1.9662 8.7953 25.1570 0.9928 7.0063 -22.6012 0.0749 -1.7655 -4.8579 0.0000 0.0000 0.0000 20.5890 3.0182 -9.6358 -3.4552 -11.3979 33.6338 -2.1173 0.4486 -27.4231 -0.8304 -5.8137 16.2449 -0.2134 0.3930 -2.0639 0.6244 0.4753 3.5241 0.7928 0.2017 4.7857 -4.5911 -3.5563 -9.5656 7.7944 -4.6027 1.0516 3.1508 -2.1264 2.3695 -0.0000 -0.0000 0.0000 -89.4699 -4.2375 25.1246 12.8970 -21.1361 -2.4160 -0.0000 0.0000 -7.7377 21.6928 15.9162 6.2257 -7.1250 0.0000 -0.0000 -5.7471 46.9590 -0.2787 -0.0000 -0.0000 0.0000 87.5907 0.9759 20.2201 -14.2775 23.1301 -2.9362 0.0000 0.0000 0.1730 -21.7145 7.3546 -2.9184 7.1250 -0.0000 -0.0000 3.7108 -22.0761 2.0483
49.9404 16.6079 -7.2594 -25.5293 -85.9450 25.6189 0.0000 0.0000 0.0000 -17.6412 -0.4792 -6.2571 1.9662 8.7954 25.1574 0.9863 7.0449 -22.5721 0.0805 -1.8303 -5.0368 0.0000 0.0000 0.0000 20.5796 3.0002 -9.6316 -3.4551 -11.3976 33.6328 -2.1172 0.4606 -27.4186 -0.8286 -5.8076 16.2271 -0.2224 0.3923 -2.0749 0.6245 0.4751 3.5136 0.7979 0.2014 4.7809 -4.5996 -3.5633 -9.5709 7.8046 -4.6130 1.0865 3.1555 -2.1306 2.3837 -0.0000 0.0000 0.0000 -89.4887 -4.2758 25.0217 12.8439 -21.0581 -2.3969 -0.0000 0.0000 -7.6255 21.6826 15.8821 6.2097 -7.1250 0.0000 -0.0000 -5.7490 46.9215 -0.2735 -0.0000 0.0000 0.0000 87.5767 0.9646 20.2401 -14.2807 23.1345 -2.9375 0.0000 0.0000 0.1594 -21.6864 7.4064 -2.9346 7.1250 -0.0000 -0.0000 3.7318 -22.0223 2.0645
49.9383 16.6078 -7.2594 -25.4341 -85.9470 25.5246 0.0000 0.0000 0.0000 -17.6478 -0.4697 -6.2620 1.9656 8.7940 25.1530 0.9798 7.0834 -22.5431 0.0858 -1.8898 -5.2011 0.0000 0.0000 0.0000 20.5699 2.9876 -9.6301 -3.4555 -11.3982 33.6349 -2.1175 0.4751 -27.4163 -0.8284 -5.8069 16.2252 -0.2333 0.3917 -2.0826 0.6246 0.4751 3.5000 0.8041 0.2012 4.7711 -4.6085 -3.5693 -9.5702 7.8151 -4.6219 1.1164 3.1605 -2.1343 2.3949 -0.0000 -0.0000 0.0000 -89.5049 -4.3089 24.9285 12.7925 -20.9825 -2.3785 -0.0000 0.0000 -7.5238 21.6667 15.8472 6.1915 -7.1250 0.0000 -0.0000 -5.7563 46.8827 -0.2683 -0.0000 -0.0000 0.0000 87.5622 0.9494 20.2635 -14.2839 23.1391 -2.9388 0.0000 0.0000 0.1468 -21.6677 7.4517 -2.9496 7.1250 -0.0000 -0.0000 3.7458 -21.9749 2.0763
49.9365 16.6077 -7.2594 -25.3603 -85.9496 25.4520 0.0000 0.0000 0.0000 -17.6526 -0.4607 -6.2664 1.9653 8.7935 25.1513 0.9755 7.1077 -22.5231 0.0897 -1.9311 -5.3154 0.0000 0.0000 0.0000 20.5627 2.9803 -9.6278 -3.4557 -11.3986 33.6361 -2.1178 0.4845 -27.4154 -0.8287 -5.8076 16.2273 -0.2438 0.3915 -2.0886 0.6250 0.4756 3.4869 0.8104 0.2013 4.7607 -4.6156 -3.5747 -9.5685 7.8255 -4.6300 1.1403 3.1651 -2.1377 2.4039 -0.0000 -0.0000 0.0000 -89.5152 -4.3250 24.8671 12.7608 -20.9357 -2.3671 -0.0000 0.0000 -7.4535 21.6462 15.8192 6.1745 -7.1250 0.0000 -0.0000 -5.7694 46.8503 -0.2643 -0.0000 -0.0000 0.0000 87.5478 0.9352 20.2886 -14.2877 23.1445 -2.9402 0.0000 0.0000 0.1334 -21.6556 7.4764 -2.9575 7.1250 -0.0000 -0.0000 3.7550 -21.9491 2.0836
49.9348 16.6075 -7.2594 -25.3440 -85.9544 25.4371 0.0000 0.0000 0.0000 -17.6553 -0.4550 -6.2669 1.9652 8.7933 25.1508 0.9737 7.1193 -22.5164 0.0914 -1.9497 -5.3668 0.0000 0.0000 0.0000 20.5590 2.9776 -9.6254 -3.4559 -11.3989 33.6373 -2.1179 0.4917 -27.4138 -0.8290 -5.8088 16.2306 -0.2497 0.3921 -2.0914 0.6248 0.4771 3.4728 0.8136 0.2020 4.7476 -4.6197 -3.5788 -9.5676 7.8354 -4.6366 1.1618 3.1690 -2.1405 2.4120 0.0000 -0.0000 0.0000 -89.5186 -4.3190 24.8363 12.7509 -20.9212 -2.3636 -0.0000 0.0000 -7.4141 21.6244 15.8085 6.1637 -7.1250 0.0000 -0.0000 -5.7875 46.8359 -0.2631 0.0000 -0.0000 0.0000 87.5358 0.9208 20.3126 -14.2912 23.1495 -2.9416 0.0000 0.0000 0.1230 -21.6471 7.4890 -2.9611 7.1250 -0.0000 -0.0000 3.7613 -21.9361 2.0883
49.9334 16.6074 -7.2594 -25.3877 -85.9574 25.4830 0.0000 0.0000 0.0000 -17.6529 -0.4516 -6.2641 1.9653 8.7935 25.1514 0.9751 7.1125 -22.5234 0.0908 -1.9432 -5.3486 0.0000 0.0000 0.0000 20.5616 2.9800 -9.6225 -3.4560 -11.3990 33.6378 -2.1181 0.4919 -27.4151 -0.8288 -5.8081 16.2287 -0.2507 0.3936 -2.0942 0.6252 0.4794 3.4599 0.8146 0.2033 4.7356 -4.6201 -3.5829 -9.5672 7.8439 -4.6432 1.1779 3.1718 -2.1433 2.4182 0.0000 0.0000 0.0000 -89.5160 -4.3037 24.8372 12.7533 -20.9246 -2.3644 -0.0000 0.0000 -7.4060 21.6081 15.8041 6.1570 -7.1250 0.0000 -0.0000 -5.8019 46.8290 -0.2627 0.0000 0.0000 0.0000 87.5256 0.9102 20.3332 -14.2943 23.1539 -2.9428 0.0000 0.0000 0.1168 -21.6480 7.4819 -2.9585 7.1250 -0.0000 -0.0000 3.7606 -21.9437 2.0872
